<svg xmlns="http://www.w3.org/2000/svg" xmlns:xlink="http://www.w3.org/1999/xlink" contentStyleType="text/css" data-diagram-type="SEQUENCE" height="384px" preserveAspectRatio="none" style="width:600px;height:384px;background:#FFFFFF;" version="1.1" viewBox="0 0 600 384" width="600px" zoomAndPan="magnify"><title>Test defaults: verifying library configuration</title><defs/><g><text fill="#000000" font-family="sans-serif" font-size="14" font-weight="bold" lengthAdjust="spacing" textLength="352.5293" x="125.4575" y="27.9951">Test defaults: verifying library configuration</text><g><title>TestRunner</title><rect fill="#000000" fill-opacity="0.00000" height="184.6641" width="8" x="44.332" y="118.5938"/><line style="stroke:#181818;stroke-width:0.5;stroke-dasharray:5,5;" x1="48" x2="48" y1="118.5938" y2="303.2578"/></g><g><title>Example .test_defaults.</title><rect fill="#000000" fill-opacity="0.00000" height="184.6641" width="8" x="187.9395" y="118.5938"/><line style="stroke:#181818;stroke-width:0.5;stroke-dasharray:5,5;" x1="191.6641" x2="191.6641" y1="118.5938" y2="303.2578"/></g><g><title>microla..Config</title><rect fill="#000000" fill-opacity="0.00000" height="184.6641" width="8" x="405.6865" y="118.5938"/><line style="stroke:#181818;stroke-width:0.5;stroke-dasharray:5,5;" x1="409.5029" x2="409.5029" y1="118.5938" y2="303.2578"/></g><g class="participant participant-head" data-participant="Main"><text fill="#000000" font-family="sans-serif" font-size="14" lengthAdjust="spacing" textLength="80.6641" x="5" y="115.292">TestRunner</text><ellipse cx="48.332" cy="50.7969" fill="#E2E2F0" rx="8" ry="8" style="stroke:#181818;stroke-width:0.5;"/><path d="M48.332,58.7969 L48.332,85.7969 M35.332,66.7969 L61.332,66.7969 M48.332,85.7969 L35.332,100.7969 M48.332,85.7969 L61.332,100.7969" fill="none" style="stroke:#181818;stroke-width:0.5;"/></g><g class="participant participant-tail" data-participant="Main"><text fill="#000000" font-family="sans-serif" font-size="14" lengthAdjust="spacing" textLength="80.6641" x="5" y="315.2529">TestRunner</text><ellipse cx="48.332" cy="327.0547" fill="#E2E2F0" rx="8" ry="8" style="stroke:#181818;stroke-width:0.5;"/><path d="M48.332,335.0547 L48.332,362.0547 M35.332,343.0547 L61.332,343.0547 M48.332,362.0547 L35.332,377.0547 M48.332,362.0547 L61.332,377.0547" fill="none" style="stroke:#181818;stroke-width:0.5;"/></g><g class="participant participant-head" data-participant="Example"><rect fill="#E2E2F0" height="30.2969" rx="2.5" ry="2.5" style="stroke:#181818;stroke-width:0.5;" width="180.5508" x="101.6641" y="87.2969"/><text fill="#000000" font-family="sans-serif" font-size="14" lengthAdjust="spacing" textLength="166.5508" x="108.6641" y="107.292">Example (test_defaults)</text></g><g class="participant participant-tail" data-participant="Example"><rect fill="#E2E2F0" height="30.2969" rx="2.5" ry="2.5" style="stroke:#181818;stroke-width:0.5;" width="180.5508" x="101.6641" y="302.2578"/><text fill="#000000" font-family="sans-serif" font-size="14" lengthAdjust="spacing" textLength="166.5508" x="108.6641" y="322.2529">Example (test_defaults)</text></g><g class="participant participant-head" data-participant="Config"><rect fill="#E2E2F0" height="30.2969" rx="2.5" ry="2.5" style="stroke:#181818;stroke-width:0.5;" width="120.3672" x="349.5029" y="87.2969"/><text fill="#000000" font-family="sans-serif" font-size="14" lengthAdjust="spacing" textLength="106.3672" x="356.5029" y="107.292">microla::Config</text></g><g class="participant participant-tail" data-participant="Config"><rect fill="#E2E2F0" height="30.2969" rx="2.5" ry="2.5" style="stroke:#181818;stroke-width:0.5;" width="120.3672" x="349.5029" y="302.2578"/><text fill="#000000" font-family="sans-serif" font-size="14" lengthAdjust="spacing" textLength="106.3672" x="356.5029" y="322.2529">microla::Config</text></g><g class="message" data-participant-1="Main" data-participant-2="Example"><polygon fill="#181818" points="179.9395,145.7266,189.9395,149.7266,179.9395,153.7266,183.9395,149.7266" style="stroke:#181818;stroke-width:1;"/><line style="stroke:#181818;stroke-width:1;" x1="48.332" x2="185.9395" y1="149.7266" y2="149.7266"/><text fill="#000000" font-family="sans-serif" font-size="13" lengthAdjust="spacing" textLength="57.6938" x="55.332" y="144.6606">run tests</text></g><g class="message" data-participant-1="Example" data-participant-2="Config"><polygon fill="#181818" points="397.6865,174.8594,407.6865,178.8594,397.6865,182.8594,401.6865,178.8594" style="stroke:#181818;stroke-width:1;"/><line style="stroke:#181818;stroke-width:1;" x1="191.9395" x2="403.6865" y1="178.8594" y2="178.8594"/><text fill="#000000" font-family="sans-serif" font-size="13" lengthAdjust="spacing" textLength="159.6626" x="198.9395" y="173.7935">query default tolerances</text></g><g class="message" data-participant-1="Example" data-participant-2="Config"><polygon fill="#181818" points="397.6865,203.9922,407.6865,207.9922,397.6865,211.9922,401.6865,207.9922" style="stroke:#181818;stroke-width:1;"/><line style="stroke:#181818;stroke-width:1;" x1="191.9395" x2="403.6865" y1="207.9922" y2="207.9922"/><text fill="#000000" font-family="sans-serif" font-size="13" lengthAdjust="spacing" textLength="190.9502" x="198.9395" y="202.9263">run small deterministic cases</text></g><g class="message" data-participant-1="Example" data-participant-2="Example"><line style="stroke:#181818;stroke-width:1;" x1="191.9395" x2="233.9395" y1="237.125" y2="237.125"/><line style="stroke:#181818;stroke-width:1;" x1="233.9395" x2="233.9395" y1="237.125" y2="250.125"/><line style="stroke:#181818;stroke-width:1;" x1="192.9395" x2="233.9395" y1="250.125" y2="250.125"/><polygon fill="#181818" points="202.9395,246.125,192.9395,250.125,202.9395,254.125,198.9395,250.125" style="stroke:#181818;stroke-width:1;"/><text fill="#000000" font-family="sans-serif" font-size="13" lengthAdjust="spacing" textLength="203.7471" x="198.9395" y="232.0591">assert results within tolerances</text></g><g class="message" data-participant-1="Example" data-participant-2="Main"><polygon fill="#181818" points="59.332,278.2578,49.332,282.2578,59.332,286.2578,55.332,282.2578" style="stroke:#181818;stroke-width:1;"/><line style="stroke:#181818;stroke-width:1;" x1="53.332" x2="190.9395" y1="282.2578" y2="282.2578"/><text fill="#000000" font-family="sans-serif" font-size="13" lengthAdjust="spacing" textLength="98.0332" x="65.332" y="277.1919">report pass/fail</text></g><path d="M196,263.125 L196,288.125 L593,288.125 L593,273.125 L583,263.125 L196,263.125" fill="#FEFFDD" style="stroke:#181818;stroke-width:0.5;"/><path d="M583,263.125 L583,273.125 L593,273.125 L583,263.125" fill="#FEFFDD" style="stroke:#181818;stroke-width:0.5;"/><text fill="#000000" font-family="sans-serif" font-size="13" lengthAdjust="spacing" textLength="376.5049" x="202" y="280.1919">Used to validate API stability &amp; default parameter choices</text><!--SRC=[RP11IyH038Nlyol27aGFuhq7GSI31q54pvATfcrWcgcPTBN_tantkx2mju7tllTUnjWImISLWvOwd9EL1Wwat2qiFIJUA-e2CKl7_Qned2LWjAmhz36Ba08MU4EMCA4QHvvG37OlVpXE7dvhRlpUqkzsrNtIBe6He-Q4JVEyjgt6upE46W_tZnlOWCu2DRY4hSVLexk1dvbyzAaIB2TIb4XNlJMeZ9YI-urqPE7Yco1YkGJErLWAgO5IgGV1BzlWuwwtrDtUGLDsOdBoeKDE8KWs0kL-i03mLQXr7WwOk4KNdjvVeHZkER4jS7E-nByBnxeIuf2vLf6qKBF-0G00]--></g></svg>