<?xml version="1.0" encoding="UTF-8" standalone="no"?>
<!DOCTYPE svg PUBLIC "-//W3C//DTD SVG 1.1//EN"
 "http://www.w3.org/Graphics/SVG/1.1/DTD/svg11.dtd">
<!-- Generated by graphviz version 2.43.0 (0)
 -->
<!-- Title: microla/extended_kalman.hpp Pages: 1 -->
<!--zoomable 302 -->

<svg id="main" version="1.1" xmlns="http://www.w3.org/2000/svg" xmlns:xlink="http://www.w3.org/1999/xlink" xml:space="preserve" onload="init(evt)">
<style type="text/css"><![CDATA[
.node, .edge {opacity: 0.7;}
.node.selected, .edge.selected {opacity: 1;}
.edge:hover path { stroke: red; }
.edge:hover polygon { stroke: red; fill: red; }
]]></style>

<defs>
  <circle id="rim" cx="0" cy="0" r="7"/>
  <circle id="rim2" cx="0" cy="0" r="3.5"/>
  <g id="zoomPlus">
    <use xlink:href="#rim" fill="#404040"><set attributeName="fill" to="#808080" begin="zoomplus.mouseover" end="zoomplus.mouseout"/></use>
    <path d="M-4,0h8M0,-4v8" fill="none" stroke="white" stroke-width="1.5" pointer-events="none"/>
  </g>
  <g id="zoomMin">
    <use xlink:href="#rim" fill="#404040"><set attributeName="fill" to="#808080" begin="zoomminus.mouseover" end="zoomminus.mouseout"/></use>
    <path d="M-4,0h8" fill="none" stroke="white" stroke-width="1.5" pointer-events="none"/>
  </g>
  <g id="arrowUp" transform="translate(30 24)">
    <use xlink:href="#rim"/>
    <path pointer-events="none" fill="none" stroke="white" stroke-width="1.5" d="M0,-3.0v7 M-2.5,-0.5L0,-3.0L2.5,-0.5"/>
  </g>
  <g id="arrowRight" transform="rotate(90) translate(36 -43)">
    <use xlink:href="#rim"/>
    <path pointer-events="none" fill="none" stroke="white" stroke-width="1.5" d="M0,-3.0v7 M-2.5,-0.5L0,-3.0L2.5,-0.5"/>
  </g>
  <g id="arrowDown" transform="rotate(180) translate(-30 -48)">
    <use xlink:href="#rim"/>
    <path pointer-events="none" fill="none" stroke="white" stroke-width="1.5" d="M0,-3.0v7 M-2.5,-0.5L0,-3.0L2.5,-0.5"/>
  </g>
  <g id="arrowLeft" transform="rotate(270) translate(-36 17)">
    <use xlink:href="#rim"/>
    <path pointer-events="none" fill="none" stroke="white" stroke-width="1.5" d="M0,-3.0v7 M-2.5,-0.5L0,-3.0L2.5,-0.5"/>
  </g>
  <g id="resetDef">
    <use xlink:href="#rim2" fill="#404040"><set attributeName="fill" to="#808080" begin="reset.mouseover" end="reset.mouseout"/></use>
  </g>
</defs>
<script type="application/ecmascript">
var viewWidth = 963;
var viewHeight = 302;
var sectionId = 'dynsection-0';
</script>
<script type="application/ecmascript" xlink:href="svg.min.js"/>
<svg id="graph" class="graph">
<g id="viewport">
<title>microla/extended_kalman.hpp</title>
<!-- Node1 -->
<g id="Node000001" class="node">
<title>Node1</title>
<g id="a_Node000001"><a xlink:title="Extended Kalman filter for nonlinear systems.">
<polygon fill="#999999" stroke="#666666" points="661.04,-294 497.04,-294 497.04,-275 661.04,-275 661.04,-294"/>
<text text-anchor="middle" x="579.04" y="-282" font-family="Helvetica,sans-Serif" font-size="10.00">microla/extended_kalman.hpp</text>
</a>
</g>
</g>
<!-- Node2 -->
<g id="Node000002" class="node">
<title>Node2</title>
<g id="a_Node000002"><a xlink:href="matrix_8hpp.html" target="_top" xlink:title="Generic matrix class Mat&lt;T,R,C&gt; with full operator support.">
<polygon fill="white" stroke="#666666" points="493.04,-239 423.04,-239 423.04,-220 493.04,-220 493.04,-239"/>
<text text-anchor="middle" x="458.04" y="-227" font-family="Helvetica,sans-Serif" font-size="10.00">matrix.hpp</text>
</a>
</g>
</g>
<!-- Node1&#45;&gt;Node2 -->
<g id="edge1_Node000001_Node000002" class="edge">
<title>Node1&#45;&gt;Node2</title>
<g id="a_edge1_Node000001_Node000002"><a xlink:title=" ">
<path fill="none" stroke="#63b8ff" d="M559.6,-274.98C540.05,-266.42 509.66,-253.11 487.22,-243.28"/>
<polygon fill="#63b8ff" stroke="#63b8ff" points="488.4,-239.98 477.84,-239.17 485.59,-246.39 488.4,-239.98"/>
</a>
</g>
</g>
<!-- Node8 -->
<g id="Node000008" class="node">
<title>Node8</title>
<g id="a_Node000008"><a xlink:href="compiler__features_8hpp.html" target="_top" xlink:title="Compiler feature detection and cross&#45;version C++ feature macros.">
<polygon fill="white" stroke="#666666" points="398.04,-74 272.04,-74 272.04,-55 398.04,-55 398.04,-74"/>
<text text-anchor="middle" x="335.04" y="-62" font-family="Helvetica,sans-Serif" font-size="10.00">compiler_features.hpp</text>
</a>
</g>
</g>
<!-- Node1&#45;&gt;Node8 -->
<g id="edge38_Node000001_Node000008" class="edge">
<title>Node1&#45;&gt;Node8</title>
<g id="a_edge38_Node000001_Node000008"><a xlink:title=" ">
<path fill="none" stroke="#63b8ff" d="M496.9,-281.46C355.55,-276.02 75.6,-256.17 15.04,-184 -56.02,-99.31 146.58,-75.12 261.61,-68.23"/>
<polygon fill="#63b8ff" stroke="#63b8ff" points="261.99,-71.72 271.78,-67.65 261.59,-64.73 261.99,-71.72"/>
</a>
</g>
</g>
<!-- Node10 -->
<g id="Node000010" class="node">
<title>Node10</title>
<g id="a_Node000010"><a xlink:href="vector_8hpp.html" target="_top" xlink:title="Generic vector class Vec&lt;T,N&gt; with full operator support.">
<polygon fill="white" stroke="#666666" points="735.04,-184 667.04,-184 667.04,-165 735.04,-165 735.04,-184"/>
<text text-anchor="middle" x="701.04" y="-172" font-family="Helvetica,sans-Serif" font-size="10.00">vector.hpp</text>
</a>
</g>
</g>
<!-- Node1&#45;&gt;Node10 -->
<g id="edge37_Node000001_Node000010" class="edge">
<title>Node1&#45;&gt;Node10</title>
<g id="a_edge37_Node000001_Node000010"><a xlink:title=" ">
<path fill="none" stroke="#63b8ff" d="M589.03,-274.66C609.77,-256.3 657.76,-213.81 683.69,-190.87"/>
<polygon fill="#63b8ff" stroke="#63b8ff" points="686.1,-193.41 691.26,-184.16 681.46,-188.17 686.1,-193.41"/>
</a>
</g>
</g>
<!-- Node11 -->
<g id="Node000011" class="node">
<title>Node11</title>
<g id="a_Node000011"><a xlink:title=" ">
<polygon fill="#e0e0e0" stroke="#999999" points="954.54,-129 907.54,-129 907.54,-110 954.54,-110 954.54,-129"/>
<text text-anchor="middle" x="931.04" y="-117" font-family="Helvetica,sans-Serif" font-size="10.00">cmath</text>
</a>
</g>
</g>
<!-- Node1&#45;&gt;Node11 -->
<g id="edge39_Node000001_Node000011" class="edge">
<title>Node1&#45;&gt;Node11</title>
<g id="a_edge39_Node000001_Node000011"><a xlink:title=" ">
<path fill="none" stroke="#63b8ff" d="M599.57,-274.97C639.6,-258.22 730.77,-219.58 806.04,-184 841.01,-167.47 880.73,-146.99 905.83,-133.84"/>
<polygon fill="#63b8ff" stroke="#63b8ff" points="907.79,-136.77 915.01,-129.02 904.53,-130.57 907.79,-136.77"/>
</a>
</g>
</g>
<!-- Node3 -->
<g id="Node000003" class="node">
<title>Node3</title>
<g id="a_Node000003"><a xlink:href="constants_8hpp.html" target="_top" xlink:title="Mathematical constants with C++20&#45;C++26 optimizations.">
<polygon fill="white" stroke="#666666" points="812.54,-129 727.54,-129 727.54,-110 812.54,-110 812.54,-129"/>
<text text-anchor="middle" x="770.04" y="-117" font-family="Helvetica,sans-Serif" font-size="10.00">constants.hpp</text>
</a>
</g>
</g>
<!-- Node2&#45;&gt;Node3 -->
<g id="edge2_Node000002_Node000003" class="edge">
<title>Node2&#45;&gt;Node3</title>
<g id="a_edge2_Node000002_Node000003"><a xlink:title=" ">
<path fill="none" stroke="#63b8ff" d="M493.25,-227.26C560.9,-224.21 705.74,-214.24 744.04,-184 757.9,-173.06 764.43,-153.5 767.47,-138.97"/>
<polygon fill="#63b8ff" stroke="#63b8ff" points="770.93,-139.52 769.18,-129.07 764.03,-138.33 770.93,-139.52"/>
</a>
</g>
</g>
<!-- Node4 -->
<g id="Node000004" class="node">
<title>Node4</title>
<g id="a_Node000004"><a xlink:title=" ">
<polygon fill="#e0e0e0" stroke="#999999" points="628.04,-74 578.04,-74 578.04,-55 628.04,-55 628.04,-74"/>
<text text-anchor="middle" x="603.04" y="-62" font-family="Helvetica,sans-Serif" font-size="10.00">cstdint</text>
</a>
</g>
</g>
<!-- Node2&#45;&gt;Node4 -->
<g id="edge26_Node000002_Node000004" class="edge">
<title>Node2&#45;&gt;Node4</title>
<g id="a_edge26_Node000002_Node000004"><a xlink:title=" ">
<path fill="none" stroke="#63b8ff" d="M461.81,-219.72C471.25,-198.54 497.79,-143.87 534.04,-110 546.99,-97.9 563.63,-87.06 577.33,-79.11"/>
<polygon fill="#63b8ff" stroke="#63b8ff" points="579.26,-82.04 586.26,-74.08 575.83,-75.94 579.26,-82.04"/>
</a>
</g>
</g>
<!-- Node7 -->
<g id="Node000007" class="node">
<title>Node7</title>
<g id="a_Node000007"><a xlink:title=" ">
<polygon fill="#e0e0e0" stroke="#999999" points="595.54,-19 526.54,-19 526.54,0 595.54,0 595.54,-19"/>
<text text-anchor="middle" x="561.04" y="-7" font-family="Helvetica,sans-Serif" font-size="10.00">type_traits</text>
</a>
</g>
</g>
<!-- Node2&#45;&gt;Node7 -->
<g id="edge30_Node000002_Node000007" class="edge">
<title>Node2&#45;&gt;Node7</title>
<g id="a_edge30_Node000002_Node000007"><a xlink:title=" ">
<path fill="none" stroke="#63b8ff" d="M422.95,-225.27C372.03,-219.85 281.3,-207.17 259.04,-184 219.31,-142.63 220.49,-93.46 263.04,-55 299.39,-22.16 442.05,-13.55 516.02,-11.3"/>
<polygon fill="#63b8ff" stroke="#63b8ff" points="516.51,-14.79 526.41,-11.01 516.32,-7.79 516.51,-14.79"/>
</a>
</g>
</g>
<!-- Node2&#45;&gt;Node8 -->
<g id="edge10_Node000002_Node000008" class="edge">
<title>Node2&#45;&gt;Node8</title>
<g id="a_edge10_Node000002_Node000008"><a xlink:title=" ">
<path fill="none" stroke="#63b8ff" d="M422.85,-229.2C383.04,-228.08 318.62,-220.2 279.04,-184 253.99,-161.08 243.24,-139.51 260.04,-110 268.34,-95.43 283.49,-85.14 298.02,-78.15"/>
<polygon fill="#63b8ff" stroke="#63b8ff" points="299.65,-81.25 307.4,-74.02 296.83,-74.85 299.65,-81.25"/>
</a>
</g>
</g>
<!-- Node2&#45;&gt;Node10 -->
<g id="edge11_Node000002_Node000010" class="edge">
<title>Node2&#45;&gt;Node10</title>
<g id="a_edge11_Node000002_Node000010"><a xlink:title=" ">
<path fill="none" stroke="#63b8ff" d="M493.12,-220.85C536.34,-211.42 609.83,-195.4 656.86,-185.14"/>
<polygon fill="#63b8ff" stroke="#63b8ff" points="657.74,-188.53 666.77,-182.98 656.25,-181.69 657.74,-188.53"/>
</a>
</g>
</g>
<!-- Node2&#45;&gt;Node11 -->
<g id="edge27_Node000002_Node000011" class="edge">
<title>Node2&#45;&gt;Node11</title>
<g id="a_edge27_Node000002_Node000011"><a xlink:title=" ">
<path fill="none" stroke="#63b8ff" d="M493.07,-225.96C550.6,-221.23 668.36,-209.17 765.04,-184 815.11,-170.97 870.8,-147.77 903.27,-133.31"/>
<polygon fill="#63b8ff" stroke="#63b8ff" points="904.89,-136.42 912.57,-129.13 902.01,-130.04 904.89,-136.42"/>
</a>
</g>
</g>
<!-- Node12 -->
<g id="Node000012" class="node">
<title>Node12</title>
<g id="a_Node000012"><a xlink:title=" ">
<polygon fill="#e0e0e0" stroke="#999999" points="552.04,-74 488.04,-74 488.04,-55 552.04,-55 552.04,-74"/>
<text text-anchor="middle" x="520.04" y="-62" font-family="Helvetica,sans-Serif" font-size="10.00">algorithm</text>
</a>
</g>
</g>
<!-- Node2&#45;&gt;Node12 -->
<g id="edge32_Node000002_Node000012" class="edge">
<title>Node2&#45;&gt;Node12</title>
<g id="a_edge32_Node000002_Node000012"><a xlink:title=" ">
<path fill="none" stroke="#63b8ff" d="M422.88,-221.11C356.91,-205.7 225.34,-166.81 273.04,-110 302.79,-74.58 432.6,-82.59 478.04,-74 478.14,-73.98 478.25,-73.96 478.35,-73.94"/>
<polygon fill="#63b8ff" stroke="#63b8ff" points="478.8,-77.42 487.96,-72.08 477.47,-70.55 478.8,-77.42"/>
</a>
</g>
</g>
<!-- Node13 -->
<g id="Node000013" class="node">
<title>Node13</title>
<g id="a_Node000013"><a xlink:title=" ">
<polygon fill="#e0e0e0" stroke="#999999" points="595.04,-129 543.04,-129 543.04,-110 595.04,-110 595.04,-129"/>
<text text-anchor="middle" x="569.04" y="-117" font-family="Helvetica,sans-Serif" font-size="10.00">cassert</text>
</a>
</g>
</g>
<!-- Node2&#45;&gt;Node13 -->
<g id="edge29_Node000002_Node000013" class="edge">
<title>Node2&#45;&gt;Node13</title>
<g id="a_edge29_Node000002_Node000013"><a xlink:title=" ">
<path fill="none" stroke="#63b8ff" d="M465.04,-219.91C475.43,-207.35 495.79,-183.45 515.04,-165 525.87,-154.62 538.81,-143.91 549.31,-135.59"/>
<polygon fill="#63b8ff" stroke="#63b8ff" points="551.73,-138.14 557.45,-129.23 547.42,-132.63 551.73,-138.14"/>
</a>
</g>
</g>
<!-- Node14 -->
<g id="Node000014" class="node">
<title>Node14</title>
<g id="a_Node000014"><a xlink:title=" ">
<polygon fill="#e0e0e0" stroke="#999999" points="365.54,-129 282.54,-129 282.54,-110 365.54,-110 365.54,-129"/>
<text text-anchor="middle" x="324.04" y="-117" font-family="Helvetica,sans-Serif" font-size="10.00">initializer_list</text>
</a>
</g>
</g>
<!-- Node2&#45;&gt;Node14 -->
<g id="edge28_Node000002_Node000014" class="edge">
<title>Node2&#45;&gt;Node14</title>
<g id="a_edge28_Node000002_Node000014"><a xlink:title=" ">
<path fill="none" stroke="#63b8ff" d="M447.08,-219.66C424.19,-201.22 371.12,-158.45 342.74,-135.57"/>
<polygon fill="#63b8ff" stroke="#63b8ff" points="344.77,-132.71 334.79,-129.16 340.38,-138.16 344.77,-132.71"/>
</a>
</g>
</g>
<!-- Node15 -->
<g id="Node000015" class="node">
<title>Node15</title>
<g id="a_Node000015"><a xlink:href="simd__helpers_8hpp.html" target="_top" xlink:title="Small SIMD utility helpers used by view implementations.">
<polygon fill="white" stroke="#666666" points="486.54,-129 383.54,-129 383.54,-110 486.54,-110 486.54,-129"/>
<text text-anchor="middle" x="435.04" y="-117" font-family="Helvetica,sans-Serif" font-size="10.00">simd_helpers.hpp</text>
</a>
</g>
</g>
<!-- Node2&#45;&gt;Node15 -->
<g id="edge31_Node000002_Node000015" class="edge">
<title>Node2&#45;&gt;Node15</title>
<g id="a_edge31_Node000002_Node000015"><a xlink:title=" ">
<path fill="none" stroke="#63b8ff" d="M454.82,-219.75C451.66,-210.86 446.91,-196.64 444.04,-184 440.69,-169.2 438.36,-152.16 436.91,-139.46"/>
<polygon fill="#63b8ff" stroke="#63b8ff" points="440.36,-138.78 435.82,-129.21 433.39,-139.52 440.36,-138.78"/>
</a>
</g>
</g>
<!-- Node17 -->
<g id="Node000017" class="node">
<title>Node17</title>
<g id="a_Node000017"><a xlink:title=" ">
<polygon fill="#e0e0e0" stroke="#999999" points="589.54,-184 524.54,-184 524.54,-165 589.54,-165 589.54,-184"/>
<text text-anchor="middle" x="557.04" y="-172" font-family="Helvetica,sans-Serif" font-size="10.00">stdexcept</text>
</a>
</g>
</g>
<!-- Node2&#45;&gt;Node17 -->
<g id="edge33_Node000002_Node000017" class="edge">
<title>Node2&#45;&gt;Node17</title>
<g id="a_edge33_Node000002_Node000017"><a xlink:title=" ">
<path fill="none" stroke="#63b8ff" d="M473.95,-219.98C489.59,-211.61 513.7,-198.7 531.93,-188.95"/>
<polygon fill="#63b8ff" stroke="#63b8ff" points="533.68,-191.98 540.85,-184.17 530.38,-185.8 533.68,-191.98"/>
</a>
</g>
</g>
<!-- Node18 -->
<g id="Node000018" class="node">
<title>Node18</title>
<g id="a_Node000018"><a xlink:title=" ">
<polygon fill="#e0e0e0" stroke="#999999" points="648.54,-184 607.54,-184 607.54,-165 648.54,-165 648.54,-184"/>
<text text-anchor="middle" x="628.04" y="-172" font-family="Helvetica,sans-Serif" font-size="10.00">tuple</text>
</a>
</g>
</g>
<!-- Node2&#45;&gt;Node18 -->
<g id="edge34_Node000002_Node000018" class="edge">
<title>Node2&#45;&gt;Node18</title>
<g id="a_edge34_Node000002_Node000018"><a xlink:title=" ">
<path fill="none" stroke="#63b8ff" d="M485.36,-219.98C516.1,-210.4 565.91,-194.87 597.8,-184.93"/>
<polygon fill="#63b8ff" stroke="#63b8ff" points="598.98,-188.23 607.48,-181.91 596.89,-181.55 598.98,-188.23"/>
</a>
</g>
</g>
<!-- Node19 -->
<g id="Node000019" class="node">
<title>Node19</title>
<g id="a_Node000019"><a xlink:title=" ">
<polygon fill="#e0e0e0" stroke="#999999" points="80.04,-184 24.04,-184 24.04,-165 80.04,-165 80.04,-184"/>
<text text-anchor="middle" x="52.04" y="-172" font-family="Helvetica,sans-Serif" font-size="10.00">optional</text>
</a>
</g>
</g>
<!-- Node2&#45;&gt;Node19 -->
<g id="edge35_Node000002_Node000019" class="edge">
<title>Node2&#45;&gt;Node19</title>
<g id="a_edge35_Node000002_Node000019"><a xlink:title=" ">
<path fill="none" stroke="#63b8ff" d="M423.01,-225.52C358.92,-219.8 218.31,-206.01 90.25,-184.04"/>
<polygon fill="#63b8ff" stroke="#63b8ff" points="90.71,-180.57 80.26,-182.31 89.52,-187.47 90.71,-180.57"/>
</a>
</g>
</g>
<!-- Node20 -->
<g id="Node000020" class="node">
<title>Node20</title>
<g id="a_Node000020"><a xlink:title=" ">
<polygon fill="#e0e0e0" stroke="#999999" points="149.54,-184 98.54,-184 98.54,-165 149.54,-165 149.54,-184"/>
<text text-anchor="middle" x="124.04" y="-172" font-family="Helvetica,sans-Serif" font-size="10.00">variant</text>
</a>
</g>
</g>
<!-- Node2&#45;&gt;Node20 -->
<g id="edge36_Node000002_Node000020" class="edge">
<title>Node2&#45;&gt;Node20</title>
<g id="a_edge36_Node000002_Node000020"><a xlink:title=" ">
<path fill="none" stroke="#63b8ff" d="M422.63,-223.83C367.29,-216.37 256.99,-200.89 164.04,-184 162.6,-183.74 161.14,-183.46 159.65,-183.18"/>
<polygon fill="#63b8ff" stroke="#63b8ff" points="160.31,-179.74 149.82,-181.21 158.94,-186.61 160.31,-179.74"/>
</a>
</g>
</g>
<!-- Node3&#45;&gt;Node4 -->
<g id="edge3_Node000003_Node000004" class="edge">
<title>Node3&#45;&gt;Node4</title>
<g id="a_edge3_Node000003_Node000004"><a xlink:title=" ">
<path fill="none" stroke="#63b8ff" d="M743.21,-109.98C714.59,-100.9 669.16,-86.48 637.81,-76.53"/>
<polygon fill="#63b8ff" stroke="#63b8ff" points="638.76,-73.16 628.17,-73.47 636.64,-79.84 638.76,-73.16"/>
</a>
</g>
</g>
<!-- Node5 -->
<g id="Node000005" class="node">
<title>Node5</title>
<g id="a_Node000005"><a xlink:title=" ">
<polygon fill="#e0e0e0" stroke="#999999" points="851.04,-74 807.04,-74 807.04,-55 851.04,-55 851.04,-74"/>
<text text-anchor="middle" x="829.04" y="-62" font-family="Helvetica,sans-Serif" font-size="10.00">limits</text>
</a>
</g>
</g>
<!-- Node3&#45;&gt;Node5 -->
<g id="edge4_Node000003_Node000005" class="edge">
<title>Node3&#45;&gt;Node5</title>
<g id="a_edge4_Node000003_Node000005"><a xlink:title=" ">
<path fill="none" stroke="#63b8ff" d="M779.52,-109.98C788.25,-102.15 801.39,-90.34 811.94,-80.86"/>
<polygon fill="#63b8ff" stroke="#63b8ff" points="814.29,-83.46 819.39,-74.17 809.61,-78.25 814.29,-83.46"/>
</a>
</g>
</g>
<!-- Node6 -->
<g id="Node000006" class="node">
<title>Node6</title>
<g id="a_Node000006"><a xlink:title=" ">
<polygon fill="#e0e0e0" stroke="#999999" points="788.54,-74 729.54,-74 729.54,-55 788.54,-55 788.54,-74"/>
<text text-anchor="middle" x="759.04" y="-62" font-family="Helvetica,sans-Serif" font-size="10.00">numbers</text>
</a>
</g>
</g>
<!-- Node3&#45;&gt;Node6 -->
<g id="edge5_Node000003_Node000006" class="edge">
<title>Node3&#45;&gt;Node6</title>
<g id="a_edge5_Node000003_Node000006"><a xlink:title=" ">
<path fill="none" stroke="#63b8ff" d="M768.23,-109.75C766.79,-102.8 764.72,-92.85 762.91,-84.13"/>
<polygon fill="#63b8ff" stroke="#63b8ff" points="766.29,-83.17 760.83,-74.09 759.43,-84.59 766.29,-83.17"/>
</a>
</g>
</g>
<!-- Node3&#45;&gt;Node7 -->
<g id="edge6_Node000003_Node000007" class="edge">
<title>Node3&#45;&gt;Node7</title>
<g id="a_edge6_Node000003_Node000007"><a xlink:title=" ">
<path fill="none" stroke="#63b8ff" d="M753.29,-109.84C716.82,-91 630.02,-46.14 586.64,-23.73"/>
<polygon fill="#63b8ff" stroke="#63b8ff" points="588.07,-20.53 577.58,-19.05 584.86,-26.75 588.07,-20.53"/>
</a>
</g>
</g>
<!-- Node3&#45;&gt;Node8 -->
<g id="edge7_Node000003_Node000008" class="edge">
<title>Node3&#45;&gt;Node8</title>
<g id="a_edge7_Node000003_Node000008"><a xlink:title=" ">
<path fill="none" stroke="#63b8ff" d="M727.54,-113.32C653.46,-104.3 499.88,-85.58 408.33,-74.43"/>
<polygon fill="#63b8ff" stroke="#63b8ff" points="408.66,-70.94 398.31,-73.21 407.81,-77.89 408.66,-70.94"/>
</a>
</g>
</g>
<!-- Node8&#45;&gt;Node7 -->
<g id="edge8_Node000008_Node000007" class="edge">
<title>Node8&#45;&gt;Node7</title>
<g id="a_edge8_Node000008_Node000007"><a xlink:title=" ">
<path fill="none" stroke="#63b8ff" d="M371.35,-54.98C410.86,-45.72 474.05,-30.9 516.52,-20.94"/>
<polygon fill="#63b8ff" stroke="#63b8ff" points="517.37,-24.34 526.31,-18.65 515.77,-17.52 517.37,-24.34"/>
</a>
</g>
</g>
<!-- Node9 -->
<g id="Node000009" class="node">
<title>Node9</title>
<g id="a_Node000009"><a xlink:title=" ">
<polygon fill="#e0e0e0" stroke="#999999" points="360.04,-19 310.04,-19 310.04,0 360.04,0 360.04,-19"/>
<text text-anchor="middle" x="335.04" y="-7" font-family="Helvetica,sans-Serif" font-size="10.00">cstring</text>
</a>
</g>
</g>
<!-- Node8&#45;&gt;Node9 -->
<g id="edge9_Node000008_Node000009" class="edge">
<title>Node8&#45;&gt;Node9</title>
<g id="a_edge9_Node000008_Node000009"><a xlink:title=" ">
<path fill="none" stroke="#63b8ff" d="M335.04,-54.75C335.04,-47.8 335.04,-37.85 335.04,-29.13"/>
<polygon fill="#63b8ff" stroke="#63b8ff" points="338.54,-29.09 335.04,-19.09 331.54,-29.09 338.54,-29.09"/>
</a>
</g>
</g>
<!-- Node10&#45;&gt;Node3 -->
<g id="edge20_Node000010_Node000003" class="edge">
<title>Node10&#45;&gt;Node3</title>
<g id="a_edge20_Node000010_Node000003"><a xlink:title=" ">
<path fill="none" stroke="#63b8ff" d="M712.13,-164.98C722.53,-157 738.3,-144.88 750.77,-135.31"/>
<polygon fill="#63b8ff" stroke="#63b8ff" points="752.96,-138.04 758.76,-129.17 748.69,-132.49 752.96,-138.04"/>
</a>
</g>
</g>
<!-- Node10&#45;&gt;Node4 -->
<g id="edge12_Node000010_Node000004" class="edge">
<title>Node10&#45;&gt;Node4</title>
<g id="a_edge12_Node000010_Node000004"><a xlink:title=" ">
<path fill="none" stroke="#63b8ff" d="M699.3,-164.8C696.29,-151.66 689.06,-126.54 675.04,-110 663.67,-96.57 647.18,-85.97 632.85,-78.49"/>
<polygon fill="#63b8ff" stroke="#63b8ff" points="634.33,-75.32 623.82,-74.02 631.23,-81.59 634.33,-75.32"/>
</a>
</g>
</g>
<!-- Node10&#45;&gt;Node5 -->
<g id="edge16_Node000010_Node000005" class="edge">
<title>Node10&#45;&gt;Node5</title>
<g id="a_edge16_Node000010_Node000005"><a xlink:title=" ">
<path fill="none" stroke="#63b8ff" d="M735.18,-170.57C763.11,-166.24 801.28,-155.53 822.04,-129 831.76,-116.58 832.85,-98.37 831.89,-84.63"/>
<polygon fill="#63b8ff" stroke="#63b8ff" points="835.33,-83.92 830.75,-74.37 828.37,-84.69 835.33,-83.92"/>
</a>
</g>
</g>
<!-- Node10&#45;&gt;Node7 -->
<g id="edge13_Node000010_Node000007" class="edge">
<title>Node10&#45;&gt;Node7</title>
<g id="a_edge13_Node000010_Node000007"><a xlink:title=" ">
<path fill="none" stroke="#63b8ff" d="M735.21,-166.2C771.27,-157.88 824.93,-143.53 840.04,-129 864.6,-105.38 882.29,-80.8 860.04,-55 827.76,-17.56 681.07,-11.13 605.84,-10.34"/>
<polygon fill="#63b8ff" stroke="#63b8ff" points="605.74,-6.84 595.72,-10.26 605.69,-13.84 605.74,-6.84"/>
</a>
</g>
</g>
<!-- Node10&#45;&gt;Node8 -->
<g id="edge19_Node000010_Node000008" class="edge">
<title>Node10&#45;&gt;Node8</title>
<g id="a_edge19_Node000010_Node000008"><a xlink:title=" ">
<path fill="none" stroke="#63b8ff" d="M688.33,-164.75C664.15,-148.18 613.14,-113.55 604.04,-110 569.28,-96.44 475.31,-82.71 408.25,-74.15"/>
<polygon fill="#63b8ff" stroke="#63b8ff" points="408.5,-70.66 398.14,-72.88 407.62,-77.6 408.5,-70.66"/>
</a>
</g>
</g>
<!-- Node10&#45;&gt;Node11 -->
<g id="edge14_Node000010_Node000011" class="edge">
<title>Node10&#45;&gt;Node11</title>
<g id="a_edge14_Node000010_Node000011"><a xlink:title=" ">
<path fill="none" stroke="#63b8ff" d="M735.48,-165.57C779.22,-155.49 854.2,-138.21 897.51,-128.23"/>
<polygon fill="#63b8ff" stroke="#63b8ff" points="898.32,-131.63 907.28,-125.98 896.75,-124.81 898.32,-131.63"/>
</a>
</g>
</g>
<!-- Node10&#45;&gt;Node12 -->
<g id="edge15_Node000010_Node000012" class="edge">
<title>Node10&#45;&gt;Node12</title>
<g id="a_edge15_Node000010_Node000012"><a xlink:title=" ">
<path fill="none" stroke="#63b8ff" d="M694.45,-164.96C683.72,-151.58 661.25,-125.6 637.04,-110 613.95,-95.12 585.13,-84.08 561.87,-76.72"/>
<polygon fill="#63b8ff" stroke="#63b8ff" points="562.86,-73.36 552.27,-73.79 560.82,-80.06 562.86,-73.36"/>
</a>
</g>
</g>
<!-- Node10&#45;&gt;Node13 -->
<g id="edge17_Node000010_Node000013" class="edge">
<title>Node10&#45;&gt;Node13</title>
<g id="a_edge17_Node000010_Node000013"><a xlink:title=" ">
<path fill="none" stroke="#63b8ff" d="M679.84,-164.98C658.31,-156.34 624.76,-142.87 600.22,-133.02"/>
<polygon fill="#63b8ff" stroke="#63b8ff" points="601.22,-129.65 590.64,-129.17 598.61,-136.14 601.22,-129.65"/>
</a>
</g>
</g>
<!-- Node10&#45;&gt;Node14 -->
<g id="edge18_Node000010_Node000014" class="edge">
<title>Node10&#45;&gt;Node14</title>
<g id="a_edge18_Node000010_Node000014"><a xlink:title=" ">
<path fill="none" stroke="#63b8ff" d="M666.97,-166.69C663.62,-166.09 660.27,-165.52 657.04,-165 535.02,-145.47 501.16,-147.51 375.76,-129.2"/>
<polygon fill="#63b8ff" stroke="#63b8ff" points="376.17,-125.72 365.77,-127.73 375.15,-132.65 376.17,-125.72"/>
</a>
</g>
</g>
<!-- Node10&#45;&gt;Node15 -->
<g id="edge21_Node000010_Node000015" class="edge">
<title>Node10&#45;&gt;Node15</title>
<g id="a_edge21_Node000010_Node000015"><a xlink:title=" ">
<path fill="none" stroke="#63b8ff" d="M666.81,-166.68C621.47,-157.64 541.03,-141.62 487.86,-131.02"/>
<polygon fill="#63b8ff" stroke="#63b8ff" points="488.43,-127.57 477.94,-129.05 487.06,-134.43 488.43,-127.57"/>
</a>
</g>
</g>
<!-- Node15&#45;&gt;Node4 -->
<g id="edge23_Node000015_Node000004" class="edge">
<title>Node15&#45;&gt;Node4</title>
<g id="a_edge23_Node000015_Node000004"><a xlink:title=" ">
<path fill="none" stroke="#63b8ff" d="M462.04,-109.98C490.91,-100.88 536.8,-86.4 568.34,-76.45"/>
<polygon fill="#63b8ff" stroke="#63b8ff" points="569.56,-79.74 578.04,-73.39 567.45,-73.06 569.56,-79.74"/>
</a>
</g>
</g>
<!-- Node15&#45;&gt;Node8 -->
<g id="edge25_Node000015_Node000008" class="edge">
<title>Node15&#45;&gt;Node8</title>
<g id="a_edge25_Node000015_Node000008"><a xlink:title=" ">
<path fill="none" stroke="#63b8ff" d="M418.98,-109.98C403.18,-101.61 378.83,-88.7 360.41,-78.95"/>
<polygon fill="#63b8ff" stroke="#63b8ff" points="361.88,-75.76 351.4,-74.17 358.6,-81.95 361.88,-75.76"/>
</a>
</g>
</g>
<!-- Node15&#45;&gt;Node12 -->
<g id="edge24_Node000015_Node000012" class="edge">
<title>Node15&#45;&gt;Node12</title>
<g id="a_edge24_Node000015_Node000012"><a xlink:title=" ">
<path fill="none" stroke="#63b8ff" d="M448.7,-109.98C461.88,-101.77 482.07,-89.18 497.61,-79.49"/>
<polygon fill="#63b8ff" stroke="#63b8ff" points="499.51,-82.43 506.14,-74.17 495.8,-76.49 499.51,-82.43"/>
</a>
</g>
</g>
<!-- Node16 -->
<g id="Node000016" class="node">
<title>Node16</title>
<g id="a_Node000016"><a xlink:title=" ">
<polygon fill="#e0e0e0" stroke="#999999" points="469.54,-74 416.54,-74 416.54,-55 469.54,-55 469.54,-74"/>
<text text-anchor="middle" x="443.04" y="-62" font-family="Helvetica,sans-Serif" font-size="10.00">cstddef</text>
</a>
</g>
</g>
<!-- Node15&#45;&gt;Node16 -->
<g id="edge22_Node000015_Node000016" class="edge">
<title>Node15&#45;&gt;Node16</title>
<g id="a_edge22_Node000015_Node000016"><a xlink:title=" ">
<path fill="none" stroke="#63b8ff" d="M436.37,-109.75C437.41,-102.8 438.92,-92.85 440.23,-84.13"/>
<polygon fill="#63b8ff" stroke="#63b8ff" points="443.72,-84.5 441.75,-74.09 436.79,-83.45 443.72,-84.5"/>
</a>
</g>
</g>
</g>
</svg>

<g id="navigator" transform="translate(0 0)" fill="#404254">
  <rect fill="#f2f5e9" fill-opacity="0.5" stroke="#606060" stroke-width=".5" x="0" y="0" width="60" height="60"/>
  <use id="zoomplus" xlink:href="#zoomPlus" x="17" y="9" onmousedown="handleZoom(evt,'in')"/>
  <use id="zoomminus" xlink:href="#zoomMin" x="42" y="9" onmousedown="handleZoom(evt,'out')"/>
  <use id="reset" xlink:href="#resetDef" x="30" y="36" onmousedown="handleReset()"/>
   <use id="arrowup" xlink:href="#arrowUp" x="0" y="0" onmousedown="handlePan(0,-1)"/>
  <use id="arrowright" xlink:href="#arrowRight" x="0" y="0" onmousedown="handlePan(1,0)"/>
  <use id="arrowdown" xlink:href="#arrowDown" x="0" y="0" onmousedown="handlePan(0,1)"/>
  <use id="arrowleft" xlink:href="#arrowLeft" x="0" y="0" onmousedown="handlePan(-1,0)"/>
</g>
<svg viewBox="0 0 15 15" width="100%" height="30px" preserveAspectRatio="xMaxYMin meet">
 <g id="arrow_out" transform="scale(0.3 0.3)">
  <a xlink:href="extended__kalman_8hpp__incl_org.svg" target="_base">
   <rect id="button" ry="5" rx="5" y="6" x="6" height="38" width="38"
        fill="#f2f5e9" fill-opacity="0.5" stroke="#606060" stroke-width="1.0"/>
   <path id="arrow"
     d="M 11.500037,31.436501 C 11.940474,20.09759 22.043105,11.32322 32.158766,21.979434 L 37.068811,17.246167 C 37.068811,17.246167 37.088388,32 37.088388,32 L 22.160133,31.978069 C 22.160133,31.978069 26.997745,27.140456 26.997745,27.140456 C 18.528582,18.264221 13.291696,25.230495 11.500037,31.436501 z"
     style="fill:#404040;"/>
  </a>
 </g>
</svg>

<style type='text/css'>
<![CDATA[
[data-mouse-over-selected='false'] { opacity: 0.7; }
[data-mouse-over-selected='true']  { opacity: 1.0; }
]]>
</style>
<script type="application/ecmascript"><![CDATA[
document.addEventListener('DOMContentLoaded', (event) => {
  highlightEdges();
  highlightAdjacentNodes();
});
]]></script>
</svg>
