<?xml version="1.0" encoding="UTF-8" standalone="no"?>
<!DOCTYPE svg PUBLIC "-//W3C//DTD SVG 1.1//EN"
 "http://www.w3.org/Graphics/SVG/1.1/DTD/svg11.dtd">
<!-- Generated by graphviz version 2.43.0 (0)
 -->
<!-- Title: microla/simd_helpers.hpp Pages: 1 -->
<svg width="1121pt" height="302pt"
 viewBox="0.00 0.00 1120.92 302.00" xmlns="http://www.w3.org/2000/svg" xmlns:xlink="http://www.w3.org/1999/xlink">
<g id="graph0" class="graph" transform="scale(1 1) rotate(0) translate(4 298)">
<title>microla/simd_helpers.hpp</title>
<!-- Node1 -->
<g id="Node000001" class="node">
<title>Node1</title>
<g id="a_Node000001"><a xlink:title="Small SIMD utility helpers used by view implementations.">
<polygon fill="#999999" stroke="#666666" points="684.42,-294 541.42,-294 541.42,-275 684.42,-275 684.42,-294"/>
<text text-anchor="middle" x="612.92" y="-282" font-family="Helvetica,sans-Serif" font-size="10.00">microla/simd_helpers.hpp</text>
</a>
</g>
</g>
<!-- Node2 -->
<g id="Node000002" class="node">
<title>Node2</title>
<g id="a_Node000002"><a xlink:href="matrix_8hpp.html" target="_top" xlink:title="Generic matrix class Mat&lt;T,R,C&gt; with full operator support.">
<polygon fill="white" stroke="#666666" points="497.92,-184 387.92,-184 387.92,-165 497.92,-165 497.92,-184"/>
<text text-anchor="middle" x="442.92" y="-172" font-family="Helvetica,sans-Serif" font-size="10.00">microla/matrix.hpp</text>
</a>
</g>
</g>
<!-- Node1&#45;&gt;Node2 -->
<g id="edge1_Node000001_Node000002" class="edge">
<title>Node1&#45;&gt;Node2</title>
<g id="a_edge1_Node000001_Node000002"><a xlink:title=" ">
<path fill="none" stroke="#63b8ff" d="M590.56,-269.3C554.82,-246.59 485.88,-202.8 456.61,-184.2"/>
<polygon fill="#63b8ff" stroke="#63b8ff" points="588.97,-272.44 599.29,-274.84 592.73,-266.53 588.97,-272.44"/>
</a>
</g>
</g>
<!-- Node7 -->
<g id="Node000007" class="node">
<title>Node7</title>
<g id="a_Node000007"><a xlink:href="matrix__view_8hpp.html" target="_top" xlink:title="Non&#45;owning matrix views for submatrix operations.">
<polygon fill="white" stroke="#666666" points="152.42,-129 15.42,-129 15.42,-110 152.42,-110 152.42,-129"/>
<text text-anchor="middle" x="83.92" y="-117" font-family="Helvetica,sans-Serif" font-size="10.00">microla/matrix_view.hpp</text>
</a>
</g>
</g>
<!-- Node1&#45;&gt;Node7 -->
<g id="edge15_Node000001_Node000007" class="edge">
<title>Node1&#45;&gt;Node7</title>
<g id="a_edge15_Node000001_Node000007"><a xlink:title=" ">
<path fill="none" stroke="#63b8ff" d="M575.48,-271.96C474.82,-240.95 199.99,-156.27 111.66,-129.05"/>
<polygon fill="#63b8ff" stroke="#63b8ff" points="574.63,-275.37 585.22,-274.97 576.69,-268.68 574.63,-275.37"/>
</a>
</g>
</g>
<!-- Node10 -->
<g id="Node000010" class="node">
<title>Node10</title>
<g id="a_Node000010"><a xlink:href="quaternion_8hpp.html" target="_top" xlink:title="Quaternion class for 3D rotations with SIMD optimizations.">
<polygon fill="white" stroke="#666666" points="759.92,-184 629.92,-184 629.92,-165 759.92,-165 759.92,-184"/>
<text text-anchor="middle" x="694.92" y="-172" font-family="Helvetica,sans-Serif" font-size="10.00">microla/quaternion.hpp</text>
</a>
</g>
</g>
<!-- Node1&#45;&gt;Node10 -->
<g id="edge16_Node000001_Node000010" class="edge">
<title>Node1&#45;&gt;Node10</title>
<g id="a_edge16_Node000001_Node000010"><a xlink:title=" ">
<path fill="none" stroke="#63b8ff" d="M615.54,-264.9C618.18,-251.43 623.28,-233.31 632.92,-220 644.42,-204.12 663.34,-191.73 677.26,-184.1"/>
<polygon fill="#63b8ff" stroke="#63b8ff" points="612.07,-264.48 613.87,-274.92 618.97,-265.63 612.07,-264.48"/>
</a>
</g>
</g>
<!-- Node11 -->
<g id="Node000011" class="node">
<title>Node11</title>
<g id="a_Node000011"><a xlink:href="vector_8hpp.html" target="_top" xlink:title="Generic vector class Vec&lt;T,N&gt; with full operator support.">
<polygon fill="white" stroke="#666666" points="748.42,-239 641.42,-239 641.42,-220 748.42,-220 748.42,-239"/>
<text text-anchor="middle" x="694.92" y="-227" font-family="Helvetica,sans-Serif" font-size="10.00">microla/vector.hpp</text>
</a>
</g>
</g>
<!-- Node1&#45;&gt;Node11 -->
<g id="edge20_Node000001_Node000011" class="edge">
<title>Node1&#45;&gt;Node11</title>
<g id="a_edge20_Node000001_Node000011"><a xlink:title=" ">
<path fill="none" stroke="#63b8ff" d="M634.69,-269.42C649.57,-259.81 668.82,-247.37 681.5,-239.17"/>
<polygon fill="#63b8ff" stroke="#63b8ff" points="632.59,-266.62 626.09,-274.98 636.39,-272.5 632.59,-266.62"/>
</a>
</g>
</g>
<!-- Node12 -->
<g id="Node000012" class="node">
<title>Node12</title>
<g id="a_Node000012"><a xlink:href="vector__view_8hpp.html" target="_top" xlink:title="Non&#45;owning vector views for subvector operations.">
<polygon fill="white" stroke="#666666" points="1112.92,-184 976.92,-184 976.92,-165 1112.92,-165 1112.92,-184"/>
<text text-anchor="middle" x="1044.92" y="-172" font-family="Helvetica,sans-Serif" font-size="10.00">microla/vector_view.hpp</text>
</a>
</g>
</g>
<!-- Node1&#45;&gt;Node12 -->
<g id="edge31_Node000001_Node000012" class="edge">
<title>Node1&#45;&gt;Node12</title>
<g id="a_edge31_Node000001_Node000012"><a xlink:title=" ">
<path fill="none" stroke="#63b8ff" d="M656.92,-272.5C743.2,-250.93 932.9,-203.5 1010.65,-184.07"/>
<polygon fill="#63b8ff" stroke="#63b8ff" points="656.03,-269.11 647.18,-274.94 657.73,-275.91 656.03,-269.11"/>
</a>
</g>
</g>
<!-- Node3 -->
<g id="Node000003" class="node">
<title>Node3</title>
<g id="a_Node000003"><a xlink:href="extended__kalman_8hpp.html" target="_top" xlink:title="Extended Kalman filter for nonlinear systems.">
<polygon fill="white" stroke="#666666" points="372.92,-129 208.92,-129 208.92,-110 372.92,-110 372.92,-129"/>
<text text-anchor="middle" x="290.92" y="-117" font-family="Helvetica,sans-Serif" font-size="10.00">microla/extended_kalman.hpp</text>
</a>
</g>
</g>
<!-- Node2&#45;&gt;Node3 -->
<g id="edge2_Node000002_Node000003" class="edge">
<title>Node2&#45;&gt;Node3</title>
<g id="a_edge2_Node000002_Node000003"><a xlink:title=" ">
<path fill="none" stroke="#63b8ff" d="M408.99,-161.67C380.64,-151.79 340.9,-137.93 315.53,-129.08"/>
<polygon fill="#63b8ff" stroke="#63b8ff" points="407.9,-165 418.49,-164.98 410.2,-158.39 407.9,-165"/>
</a>
</g>
</g>
<!-- Node4 -->
<g id="Node000004" class="node">
<title>Node4</title>
<g id="a_Node000004"><a xlink:href="microla_8hpp.html" target="_top" xlink:title="Main header for MicroLA &#45; header&#45;only linear algebra library.">
<polygon fill="white" stroke="#666666" points="658.92,-74 544.92,-74 544.92,-55 658.92,-55 658.92,-74"/>
<text text-anchor="middle" x="601.92" y="-62" font-family="Helvetica,sans-Serif" font-size="10.00">microla/microla.hpp</text>
</a>
</g>
</g>
<!-- Node2&#45;&gt;Node4 -->
<g id="edge10_Node000002_Node000004" class="edge">
<title>Node2&#45;&gt;Node4</title>
<g id="a_edge10_Node000002_Node000004"><a xlink:title=" ">
<path fill="none" stroke="#63b8ff" d="M377.78,-170.71C313.65,-166.43 222.17,-155.7 199.92,-129 194.51,-122.51 194.28,-116.29 199.92,-110 222.49,-84.79 438.96,-72.32 544.56,-67.69"/>
<polygon fill="#63b8ff" stroke="#63b8ff" points="377.62,-174.2 387.82,-171.34 378.06,-167.22 377.62,-174.2"/>
</a>
</g>
</g>
<!-- Node5 -->
<g id="Node000005" class="node">
<title>Node5</title>
<g id="a_Node000005"><a xlink:href="geometry_8hpp.html" target="_top" xlink:title="Geometric primitives and utilities for collision detection and ray tracing.">
<polygon fill="white" stroke="#666666" points="663.42,-19 540.42,-19 540.42,0 663.42,0 663.42,-19"/>
<text text-anchor="middle" x="601.92" y="-7" font-family="Helvetica,sans-Serif" font-size="10.00">microla/geometry.hpp</text>
</a>
</g>
</g>
<!-- Node2&#45;&gt;Node5 -->
<g id="edge5_Node000002_Node000005" class="edge">
<title>Node2&#45;&gt;Node5</title>
<g id="a_edge5_Node000002_Node000005"><a xlink:title=" ">
<path fill="none" stroke="#63b8ff" d="M377.43,-174.12C243.95,-174.2 -43.04,-167.8 5.92,-110 74.01,-29.6 402.2,-14.11 540.38,-11.17"/>
<polygon fill="#63b8ff" stroke="#63b8ff" points="377.55,-177.62 387.54,-174.1 377.53,-170.62 377.55,-177.62"/>
</a>
</g>
</g>
<!-- Node6 -->
<g id="Node000006" class="node">
<title>Node6</title>
<g id="a_Node000006"><a xlink:href="kalman_8hpp.html" target="_top" xlink:title="Standard Kalman filter implementation for embedded systems.">
<polygon fill="white" stroke="#666666" points="504.42,-129 391.42,-129 391.42,-110 504.42,-110 504.42,-129"/>
<text text-anchor="middle" x="447.92" y="-117" font-family="Helvetica,sans-Serif" font-size="10.00">microla/kalman.hpp</text>
</a>
</g>
</g>
<!-- Node2&#45;&gt;Node6 -->
<g id="edge6_Node000002_Node000006" class="edge">
<title>Node2&#45;&gt;Node6</title>
<g id="a_edge6_Node000002_Node000006"><a xlink:title=" ">
<path fill="none" stroke="#63b8ff" d="M444.69,-154.66C445.52,-145.93 446.45,-135.99 447.11,-129.09"/>
<polygon fill="#63b8ff" stroke="#63b8ff" points="441.2,-154.46 443.74,-164.75 448.17,-155.12 441.2,-154.46"/>
</a>
</g>
</g>
<!-- Node2&#45;&gt;Node7 -->
<g id="edge8_Node000002_Node000007" class="edge">
<title>Node2&#45;&gt;Node7</title>
<g id="a_edge8_Node000002_Node000007"><a xlink:title=" ">
<path fill="none" stroke="#63b8ff" d="M377.53,-163.85C310.15,-153.9 206.11,-138.54 141.67,-129.03"/>
<polygon fill="#63b8ff" stroke="#63b8ff" points="377.2,-167.34 387.61,-165.33 378.23,-160.41 377.2,-167.34"/>
</a>
</g>
</g>
<!-- Node8 -->
<g id="Node000008" class="node">
<title>Node8</title>
<g id="a_Node000008"><a xlink:href="resource__checks_8hpp.html" target="_top" xlink:title="Compile&#45;time resource usage validation for embedded systems.">
<polygon fill="white" stroke="#666666" points="680.92,-129 522.92,-129 522.92,-110 680.92,-110 680.92,-129"/>
<text text-anchor="middle" x="601.92" y="-117" font-family="Helvetica,sans-Serif" font-size="10.00">microla/resource_checks.hpp</text>
</a>
</g>
</g>
<!-- Node2&#45;&gt;Node8 -->
<g id="edge11_Node000002_Node000008" class="edge">
<title>Node2&#45;&gt;Node8</title>
<g id="a_edge11_Node000002_Node000008"><a xlink:title=" ">
<path fill="none" stroke="#63b8ff" d="M478.02,-161.8C507.69,-151.91 549.51,-137.97 576.17,-129.08"/>
<polygon fill="#63b8ff" stroke="#63b8ff" points="476.84,-158.5 468.46,-164.98 479.06,-165.14 476.84,-158.5"/>
</a>
</g>
</g>
<!-- Node9 -->
<g id="Node000009" class="node">
<title>Node9</title>
<g id="a_Node000009"><a xlink:href="sensor__fusion_8hpp.html" target="_top" xlink:title="Relative sensor&#45;fusion utilities for angle estimation between two entities.">
<polygon fill="white" stroke="#666666" points="844.42,-129 699.42,-129 699.42,-110 844.42,-110 844.42,-129"/>
<text text-anchor="middle" x="771.92" y="-117" font-family="Helvetica,sans-Serif" font-size="10.00">microla/sensor_fusion.hpp</text>
</a>
</g>
</g>
<!-- Node2&#45;&gt;Node9 -->
<g id="edge13_Node000002_Node000009" class="edge">
<title>Node2&#45;&gt;Node9</title>
<g id="a_edge13_Node000002_Node000009"><a xlink:title=" ">
<path fill="none" stroke="#63b8ff" d="M505.79,-163.37C567.57,-153.42 660.79,-138.4 718.91,-129.04"/>
<polygon fill="#63b8ff" stroke="#63b8ff" points="505.09,-159.94 495.78,-164.98 506.2,-166.85 505.09,-159.94"/>
</a>
</g>
</g>
<!-- Node3&#45;&gt;Node4 -->
<g id="edge3_Node000003_Node000004" class="edge">
<title>Node3&#45;&gt;Node4</title>
<g id="a_edge3_Node000003_Node000004"><a xlink:title=" ">
<path fill="none" stroke="#63b8ff" d="M351.07,-108.25C409.47,-98.3 497.09,-83.36 551.81,-74.04"/>
<polygon fill="#63b8ff" stroke="#63b8ff" points="350.15,-104.85 340.88,-109.98 351.33,-111.75 350.15,-104.85"/>
</a>
</g>
</g>
<!-- Node4&#45;&gt;Node5 -->
<g id="edge4_Node000004_Node000005" class="edge">
<title>Node4&#45;&gt;Node5</title>
<g id="a_edge4_Node000004_Node000005"><a xlink:title=" ">
<path fill="none" stroke="#63b8ff" d="M601.92,-44.66C601.92,-35.93 601.92,-25.99 601.92,-19.09"/>
<polygon fill="#63b8ff" stroke="#63b8ff" points="598.42,-44.75 601.92,-54.75 605.42,-44.75 598.42,-44.75"/>
</a>
</g>
</g>
<!-- Node6&#45;&gt;Node4 -->
<g id="edge7_Node000006_Node000004" class="edge">
<title>Node6&#45;&gt;Node4</title>
<g id="a_edge7_Node000006_Node000004"><a xlink:title=" ">
<path fill="none" stroke="#63b8ff" d="M482.29,-106.67C511.01,-96.79 551.27,-82.93 576.98,-74.08"/>
<polygon fill="#63b8ff" stroke="#63b8ff" points="480.98,-103.42 472.66,-109.98 483.25,-110.04 480.98,-103.42"/>
</a>
</g>
</g>
<!-- Node7&#45;&gt;Node4 -->
<g id="edge9_Node000007_Node000004" class="edge">
<title>Node7&#45;&gt;Node4</title>
<g id="a_edge9_Node000007_Node000004"><a xlink:title=" ">
<path fill="none" stroke="#63b8ff" d="M162.99,-110.4C164.31,-110.27 165.62,-110.13 166.92,-110 302.47,-96.12 461.8,-79.83 544.91,-71.33"/>
<polygon fill="#63b8ff" stroke="#63b8ff" points="162.35,-106.95 152.76,-111.45 163.06,-113.91 162.35,-106.95"/>
</a>
</g>
</g>
<!-- Node8&#45;&gt;Node4 -->
<g id="edge12_Node000008_Node000004" class="edge">
<title>Node8&#45;&gt;Node4</title>
<g id="a_edge12_Node000008_Node000004"><a xlink:title=" ">
<path fill="none" stroke="#63b8ff" d="M601.92,-99.66C601.92,-90.93 601.92,-80.99 601.92,-74.09"/>
<polygon fill="#63b8ff" stroke="#63b8ff" points="598.42,-99.75 601.92,-109.75 605.42,-99.75 598.42,-99.75"/>
</a>
</g>
</g>
<!-- Node9&#45;&gt;Node4 -->
<g id="edge14_Node000009_Node000004" class="edge">
<title>Node9&#45;&gt;Node4</title>
<g id="a_edge14_Node000009_Node000004"><a xlink:title=" ">
<path fill="none" stroke="#63b8ff" d="M734.8,-106.93C703.05,-97.03 658.07,-83.01 629.44,-74.08"/>
<polygon fill="#63b8ff" stroke="#63b8ff" points="734.01,-110.35 744.6,-109.98 736.1,-103.67 734.01,-110.35"/>
</a>
</g>
</g>
<!-- Node10&#45;&gt;Node4 -->
<g id="edge17_Node000010_Node000004" class="edge">
<title>Node10&#45;&gt;Node4</title>
<g id="a_edge17_Node000010_Node000004"><a xlink:title=" ">
<path fill="none" stroke="#63b8ff" d="M769.97,-167.27C823.86,-159.87 882.38,-143.93 853.92,-110 829.54,-80.94 725.57,-70.85 659.03,-67.35"/>
<polygon fill="#63b8ff" stroke="#63b8ff" points="769.45,-163.81 759.98,-168.56 770.35,-170.75 769.45,-163.81"/>
</a>
</g>
</g>
<!-- Node10&#45;&gt;Node8 -->
<g id="edge18_Node000010_Node000008" class="edge">
<title>Node10&#45;&gt;Node8</title>
<g id="a_edge18_Node000010_Node000008"><a xlink:title=" ">
<path fill="none" stroke="#63b8ff" d="M671.17,-159.97C654.17,-150.28 631.78,-137.52 617.13,-129.17"/>
<polygon fill="#63b8ff" stroke="#63b8ff" points="669.55,-163.07 679.97,-164.98 673.02,-156.99 669.55,-163.07"/>
</a>
</g>
</g>
<!-- Node10&#45;&gt;Node9 -->
<g id="edge19_Node000010_Node000009" class="edge">
<title>Node10&#45;&gt;Node9</title>
<g id="a_edge19_Node000010_Node000009"><a xlink:title=" ">
<path fill="none" stroke="#63b8ff" d="M715.76,-159.15C729.68,-149.57 747.52,-137.29 759.32,-129.17"/>
<polygon fill="#63b8ff" stroke="#63b8ff" points="713.54,-156.43 707.29,-164.98 717.51,-162.2 713.54,-156.43"/>
</a>
</g>
</g>
<!-- Node11&#45;&gt;Node2 -->
<g id="edge24_Node000011_Node000002" class="edge">
<title>Node11&#45;&gt;Node2</title>
<g id="a_edge24_Node000011_Node000002"><a xlink:title=" ">
<path fill="none" stroke="#63b8ff" d="M644.41,-217.88C597.18,-207.94 527.53,-193.3 483.72,-184.08"/>
<polygon fill="#63b8ff" stroke="#63b8ff" points="643.92,-221.35 654.43,-219.98 645.36,-214.5 643.92,-221.35"/>
</a>
</g>
</g>
<!-- Node11&#45;&gt;Node3 -->
<g id="edge21_Node000011_Node000003" class="edge">
<title>Node11&#45;&gt;Node3</title>
<g id="a_edge21_Node000011_Node000003"><a xlink:title=" ">
<path fill="none" stroke="#63b8ff" d="M654.77,-217.15C625.91,-208.72 586.21,-196.54 551.92,-184 531.53,-176.54 527.65,-171.44 506.92,-165 453.9,-148.52 391.65,-136.43 347.63,-129.05"/>
<polygon fill="#63b8ff" stroke="#63b8ff" points="653.92,-220.55 664.5,-219.97 655.87,-213.82 653.92,-220.55"/>
</a>
</g>
</g>
<!-- Node11&#45;&gt;Node4 -->
<g id="edge25_Node000011_Node000004" class="edge">
<title>Node11&#45;&gt;Node4</title>
<g id="a_edge25_Node000011_Node000004"><a xlink:title=" ">
<path fill="none" stroke="#63b8ff" d="M741.24,-217.38C806.85,-199.51 914.32,-161.17 870.92,-110 844.32,-78.64 729.91,-69.35 659.14,-66.62"/>
<polygon fill="#63b8ff" stroke="#63b8ff" points="740.26,-214.02 731.49,-219.97 742.06,-220.78 740.26,-214.02"/>
</a>
</g>
</g>
<!-- Node11&#45;&gt;Node5 -->
<g id="edge22_Node000011_Node000005" class="edge">
<title>Node11&#45;&gt;Node5</title>
<g id="a_edge22_Node000011_Node000005"><a xlink:title=" ">
<path fill="none" stroke="#63b8ff" d="M758.75,-223.8C792.22,-218.49 832.13,-207.32 860.92,-184 888.24,-161.86 909.31,-138.65 888.92,-110 837.93,-38.36 731.59,-17.83 663.65,-12.22"/>
<polygon fill="#63b8ff" stroke="#63b8ff" points="757.98,-220.38 748.59,-225.27 758.99,-227.31 757.98,-220.38"/>
</a>
</g>
</g>
<!-- Node11&#45;&gt;Node6 -->
<g id="edge23_Node000011_Node000006" class="edge">
<title>Node11&#45;&gt;Node6</title>
<g id="a_edge23_Node000011_Node000006"><a xlink:title=" ">
<path fill="none" stroke="#63b8ff" d="M665.65,-215.71C614.63,-193.4 510.7,-147.95 467.46,-129.05"/>
<polygon fill="#63b8ff" stroke="#63b8ff" points="664.56,-219.05 675.12,-219.84 667.36,-212.63 664.56,-219.05"/>
</a>
</g>
</g>
<!-- Node11&#45;&gt;Node8 -->
<g id="edge27_Node000011_Node000008" class="edge">
<title>Node11&#45;&gt;Node8</title>
<g id="a_edge27_Node000011_Node000008"><a xlink:title=" ">
<path fill="none" stroke="#63b8ff" d="M662.48,-215.55C647.91,-208.25 631.62,-197.79 620.92,-184 608.07,-167.46 603.89,-142.34 602.54,-129.2"/>
<polygon fill="#63b8ff" stroke="#63b8ff" points="661.19,-218.81 671.73,-219.89 664.16,-212.47 661.19,-218.81"/>
</a>
</g>
</g>
<!-- Node11&#45;&gt;Node9 -->
<g id="edge28_Node000011_Node000009" class="edge">
<title>Node11&#45;&gt;Node9</title>
<g id="a_edge28_Node000011_Node000009"><a xlink:title=" ">
<path fill="none" stroke="#63b8ff" d="M730.82,-215.7C745.19,-208.65 760.34,-198.36 768.92,-184 779.21,-166.75 776.39,-141.93 773.89,-129.03"/>
<polygon fill="#63b8ff" stroke="#63b8ff" points="729.24,-212.57 721.56,-219.87 732.12,-218.95 729.24,-212.57"/>
</a>
</g>
</g>
<!-- Node11&#45;&gt;Node10 -->
<g id="edge26_Node000011_Node000010" class="edge">
<title>Node11&#45;&gt;Node10</title>
<g id="a_edge26_Node000011_Node000010"><a xlink:title=" ">
<path fill="none" stroke="#63b8ff" d="M694.92,-209.66C694.92,-200.93 694.92,-190.99 694.92,-184.09"/>
<polygon fill="#63b8ff" stroke="#63b8ff" points="691.42,-209.75 694.92,-219.75 698.42,-209.75 691.42,-209.75"/>
</a>
</g>
</g>
<!-- Node11&#45;&gt;Node12 -->
<g id="edge29_Node000011_Node000012" class="edge">
<title>Node11&#45;&gt;Node12</title>
<g id="a_edge29_Node000011_Node000012"><a xlink:title=" ">
<path fill="none" stroke="#63b8ff" d="M758.69,-218.84C824.44,-208.89 925.97,-193.51 988.78,-184"/>
<polygon fill="#63b8ff" stroke="#63b8ff" points="757.82,-215.43 748.45,-220.39 758.87,-222.36 757.82,-215.43"/>
</a>
</g>
</g>
<!-- Node12&#45;&gt;Node4 -->
<g id="edge30_Node000012_Node000004" class="edge">
<title>Node12&#45;&gt;Node4</title>
<g id="a_edge30_Node000012_Node000004"><a xlink:title=" ">
<path fill="none" stroke="#63b8ff" d="M1023.59,-159.24C1000.36,-144.44 961.59,-121.82 924.92,-110 834.81,-80.96 724.57,-70.87 658.97,-67.36"/>
<polygon fill="#63b8ff" stroke="#63b8ff" points="1021.97,-162.36 1032.27,-164.87 1025.78,-156.49 1021.97,-162.36"/>
</a>
</g>
</g>
</g>
</svg>
